<?xml version="1.0" standalone="no"?>
<!DOCTYPE svg PUBLIC "-//W3C//DTD SVG 20010904//EN"
 "http://www.w3.org/TR/2001/REC-SVG-20010904/DTD/svg10.dtd">
<svg version="1.0" xmlns="http://www.w3.org/2000/svg"
 width="1080.000000pt" height="1080.000000pt" viewBox="0 0 1080.000000 1080.000000"
 preserveAspectRatio="xMidYMid meet">

<g transform="translate(0.000000,1080.000000) scale(0.100000,-0.100000)"
fill="#000000" stroke="none">
<path d="M3425 8105 c-224 -50 -403 -192 -500 -398 -69 -144 -66 -25 -63
-2005 l3 -1787 27 -73 c40 -110 84 -177 178 -273 72 -73 100 -93 180 -133 161
-78 162 -78 690 -79 501 -1 516 0 695 54 142 43 268 99 392 173 116 69 238
155 230 162 -2 3 -395 6 -873 7 -972 2 -906 -3 -1009 75 -36 27 -60 56 -85
106 l-35 69 0 1741 0 1741 26 56 c33 71 87 125 158 158 l56 26 1470 0 1470 0
46 -21 c64 -30 125 -88 157 -148 l27 -51 3 -950 c1 -522 6 -953 10 -957 10
-10 360 69 380 85 10 8 12 187 10 926 -4 1028 1 954 -80 1121 -34 69 -59 102
-133 176 -76 76 -105 98 -185 138 -164 81 -63 76 -1718 75 -1188 0 -1478 -3
-1527 -14z"/>
<path d="M5005 7228 c-34 -9 -93 -63 -395 -364 -196 -195 -360 -354 -365 -354
-5 0 -66 56 -135 125 -160 158 -210 180 -305 136 -99 -45 -140 -153 -95 -245
12 -25 102 -123 232 -253 184 -183 219 -213 257 -223 47 -12 99 -7 141 15 14
7 219 208 456 447 421 422 432 434 442 483 11 51 5 102 -16 141 -19 35 -79 82
-119 93 -44 12 -44 12 -98 -1z"/>
<path d="M5385 6544 c-133 -69 -135 -241 -3 -310 22 -11 98 -14 396 -14 367 0
369 0 403 23 55 37 79 81 79 147 0 72 -37 128 -99 154 -60 24 -730 24 -776 0z"/>
<path d="M3855 5745 c-5 -2 -22 -6 -37 -9 -37 -8 -98 -63 -114 -103 -35 -82
-4 -175 73 -224 l47 -29 1147 0 c787 0 1157 3 1176 11 34 13 80 55 99 91 8 15
14 54 14 86 0 50 -5 65 -31 101 -17 25 -48 50 -72 62 -41 18 -82 19 -1167 18
-619 0 -1129 -2 -1135 -4z"/>
<path d="M7425 5403 c-11 -3 -135 -38 -275 -78 -140 -40 -347 -99 -459 -130
-112 -31 -217 -63 -233 -71 -62 -32 -86 -119 -50 -179 11 -17 71 -79 135 -139
65 -60 117 -114 117 -120 0 -32 -344 -420 -629 -710 -677 -686 -1220 -1054
-1736 -1177 -89 -21 -123 -24 -310 -24 -167 0 -225 4 -285 18 -210 50 -405
134 -594 256 -119 77 -159 88 -196 51 -52 -52 -35 -98 91 -233 249 -267 610
-447 978 -487 363 -40 749 52 1136 271 513 291 1120 834 1764 1577 68 78 126
142 130 142 3 0 53 -43 111 -96 119 -109 132 -119 177 -129 39 -8 95 16 118
51 19 29 28 76 105 524 34 195 67 387 75 427 22 105 20 174 -6 207 -38 48 -95
65 -164 49z"/>
<path d="M3815 4955 c-50 -17 -112 -85 -121 -132 -18 -94 19 -173 99 -212 44
-21 46 -21 864 -19 l819 3 42 28 c73 48 103 148 68 230 -17 43 -76 93 -123
106 -25 7 -305 11 -823 11 -647 -1 -792 -3 -825 -15z"/>
</g>
</svg>
